<svg xmlns="http://www.w3.org/2000/svg" viewBox="0 0 300 400" width="300" height="400">
  <defs>
    <linearGradient id="bg" x1="0" y1="0" x2="1" y2="1">
      <stop offset="0%" stop-color="#1a1035"/>
      <stop offset="55%" stop-color="#2d1b4e"/>
      <stop offset="100%" stop-color="#1a1035"/>
    </linearGradient>
    <radialGradient id="glow" cx="50%" cy="38%" r="38%">
      <stop offset="0%" stop-color="#d4af37" stop-opacity="0.32"/>
      <stop offset="100%" stop-color="#d4af37" stop-opacity="0"/>
    </radialGradient>
  </defs>
  <rect width="300" height="400" fill="url(#bg)"/>
  <rect x="10" y="10" width="280" height="380" rx="10" fill="none" stroke="#7c5e1e" stroke-width="1" opacity="0.55"/>
  <circle cx="150" cy="150" r="100" fill="url(#glow)"/>
  <text x="26" y="36" font-size="13" fill="#d4af37" opacity="0.7">&#10022;</text>
  <text x="274" y="36" font-size="13" fill="#d4af37" text-anchor="end" opacity="0.7">&#10022;</text>
  <text x="26" y="374" font-size="13" fill="#d4af37" opacity="0.7">&#10022;</text>
  <text x="274" y="374" font-size="13" fill="#d4af37" text-anchor="end" opacity="0.7">&#10022;</text>
  <g transform="translate(150,148) scale(3.4) translate(-12,-12)" fill="none" stroke="#e8d9a0" stroke-width="1.3" stroke-linecap="round" stroke-linejoin="round">
    <path d="M13.997 4a2 2 0 0 1 1.76 1.05l.486.9A2 2 0 0 0 18.003 7H20a2 2 0 0 1 2 2v9a2 2 0 0 1-2 2H4a2 2 0 0 1-2-2V9a2 2 0 0 1 2-2h1.997a2 2 0 0 0 1.759-1.048l.489-.904A2 2 0 0 1 10.004 4z"/>
    <circle cx="12" cy="13" r="3"/>
  </g>
  <circle cx="197" cy="197" r="16" fill="#1a1035" stroke="#d4af37" stroke-width="2"/>
  <path d="M197 190v14M190 197h14" stroke="#d4af37" stroke-width="2.2" stroke-linecap="round"/>
  <rect x="35" y="302" width="230" height="46" rx="8" fill="#241533" stroke="#d4af37" stroke-width="1.5"/>
  <text x="150" y="330" font-size="14.5" fill="#f6e7b0" text-anchor="middle" font-family="Georgia, 'Nanum Myeongjo', serif" letter-spacing="0.3">여기를 눌러 사진을 입력해주세요</text>
</svg>
